<svg width="2500" height="2500" viewBox="0 0 2500 2500" fill="none" xmlns="http://www.w3.org/2000/svg">
<path d="M1449.96 1098.93C1481.28 1033.3 1496.94 1000.48 1522.17 1000.48C1547.41 1000.48 1563.06 1033.3 1594.37 1098.94L1990.41 1929.26C2014.94 1980.68 2027.2 2006.39 2015.43 2025.05C2003.66 2043.7 1975.18 2043.7 1918.21 2043.7L1894.75 2043.7C1870.21 2043.7 1857.94 2043.7 1848.16 2037.53C1838.38 2031.36 1833.1 2020.29 1822.54 1998.14L1438.22 1192.41C1430.15 1175.48 1426.11 1167.02 1426.11 1157.97C1426.11 1148.91 1430.15 1140.45 1438.23 1123.52L1449.96 1098.93Z" fill="white"/>
<path d="M1333.52 553.627C1341.63 570.569 1345.68 579.04 1345.69 588.103C1345.69 597.167 1341.65 605.642 1333.57 622.594L677.714 1997.62C667.19 2019.68 661.929 2030.71 652.191 2036.88C642.454 2043.05 630.232 2043.09 605.788 2043.17L582.286 2043.26C525.121 2043.46 496.539 2043.56 484.711 2024.88C472.883 2006.21 485.188 1980.41 509.798 1928.82L1177.4 529.154C1208.67 463.593 1224.31 430.813 1249.53 430.798C1274.75 430.783 1290.43 463.545 1321.78 529.069L1333.52 553.627Z" fill="white"/>
</svg>
