<?xml version="1.0" standalone="no"?>
<!DOCTYPE svg PUBLIC "-//W3C//DTD SVG 20010904//EN"
 "http://www.w3.org/TR/2001/REC-SVG-20010904/DTD/svg10.dtd">
<svg version="1.0" xmlns="http://www.w3.org/2000/svg"
 width="250.000000pt" height="250.000000pt" viewBox="0 0 250.000000 250.000000"
 preserveAspectRatio="xMidYMid meet">
<metadata>
Created by potrace 1.14, written by Peter Selinger 2001-2017
</metadata>
<g transform="translate(0.000000,250.000000) scale(0.100000,-0.100000)"
fill="#000000" stroke="none">
<path d="M1111 1848 c-71 -145 -140 -288 -154 -318 -14 -30 -52 -111 -85 -180
-146 -307 -410 -880 -442 -962 -21 -52 -17 -58 44 -58 18 0 38 -6 45 -12 11
-10 13 -10 7 0 -4 7 -1 12 8 13 9 1 22 2 29 3 6 1 20 -2 31 -7 14 -7 16 -6 11
4 -6 9 -3 11 8 6 9 -3 16 -3 16 1 -3 20 2 42 13 54 7 7 13 20 13 28 0 8 6 14
13 12 8 -1 11 2 8 7 -7 10 32 101 47 112 5 3 8 9 8 13 -3 19 0 27 8 22 5 -3 8
2 7 12 0 9 4 16 10 15 7 -1 10 6 7 17 -3 11 0 20 6 20 6 0 10 3 9 8 -3 13 49
129 68 152 7 8 13 20 13 25 3 26 13 45 23 39 6 -4 8 -2 4 4 -8 13 13 62 34 80
8 8 10 11 3 8 -6 -4 1 18 15 48 15 30 31 52 36 48 5 -3 6 0 2 6 -9 14 14 63
27 55 6 -3 7 -1 3 5 -9 15 55 152 68 145 5 -3 6 -1 2 5 -10 17 24 92 43 93 9
0 11 3 4 5 -9 4 -9 11 -1 29 6 14 15 22 21 18 6 -3 7 -1 3 6 -4 6 2 28 13 47
12 19 21 42 21 50 0 8 5 14 10 14 6 0 10 3 9 8 -2 16 14 52 24 52 6 0 8 3 4 6
-6 6 38 103 52 114 3 3 7 12 9 20 7 37 56 129 65 123 6 -3 7 -1 3 5 -4 7 -3
20 3 29 15 27 -82 213 -111 213 -5 0 -67 -118 -137 -262z"/>
<path d="M1493 1518 c-38 -65 -66 -144 -67 -185 -1 -23 2 -39 6 -37 10 6 44
-76 40 -95 -2 -7 1 -10 6 -7 12 7 24 -22 15 -36 -3 -7 -1 -8 5 -4 7 4 12 1 12
-8 0 -9 9 -30 19 -48 11 -17 18 -35 15 -40 -3 -4 0 -8 7 -8 7 0 10 -3 6 -6 -3
-4 1 -13 9 -21 8 -9 12 -25 9 -37 -2 -11 -2 -15 1 -8 4 9 11 4 21 -15 8 -15
16 -32 17 -38 1 -5 5 -16 9 -22 5 -7 5 -18 1 -25 -4 -6 -3 -8 3 -5 8 5 65 -98
68 -123 1 -3 20 -43 43 -89 23 -45 39 -87 36 -92 -3 -5 0 -9 5 -9 6 0 11 -7
11 -15 0 -8 5 -15 10 -15 6 0 10 -7 10 -15 0 -9 7 -27 16 -40 9 -14 13 -25 9
-25 -3 0 1 -7 10 -16 9 -10 14 -25 12 -36 -3 -10 -2 -16 3 -13 4 3 13 -9 20
-25 7 -17 18 -30 24 -31 51 -3 163 4 178 12 16 9 15 15 -16 87 -40 93 -62 141
-161 353 -214 456 -366 762 -381 766 -6 2 -20 -11 -31 -29z"/>
</g>
</svg>
